<svg xmlns="http://www.w3.org/2000/svg" xmlns:xlink="http://www.w3.org/1999/xlink" width="850" height="200"><defs><linearGradient id="b"><stop offset="0" stop-color="#fff"/><stop offset=".5" stop-color="#fff" stop-opacity=".29"/><stop offset="1" stop-color="#fff" stop-opacity="0"/></linearGradient><linearGradient id="a"><stop offset="0" stop-color="#045a95"/><stop offset="1" stop-color="#004166"/></linearGradient><linearGradient xlink:href="#a" id="d" x1="-29.29" y1="747.36" x2="820.71" y2="747.36" gradientUnits="userSpaceOnUse" gradientTransform="translate(29.286 205)"/><radialGradient xlink:href="#b" id="e" cx="548.97" cy="130" fx="548.97" fy="130" r="12.5" gradientUnits="userSpaceOnUse" gradientTransform="matrix(.997 0 0 .997 7.72 .4)"/><linearGradient id="c"><stop offset="0" stop-color="#fff"/><stop offset=".5" stop-color="#fff" stop-opacity=".29"/><stop offset="1" stop-color="#fff" stop-opacity="0"/></linearGradient><radialGradient r="12.5" fy="130" fx="548.97" cy="130" cx="548.97" gradientTransform="matrix(.997 0 0 .997 -532.28 .4)" gradientUnits="userSpaceOnUse" id="f" xlink:href="#c"/><filter id="g" x="-1.08" width="3.16" y="-.85" height="2.71"><feGaussianBlur stdDeviation="6.75"/></filter><filter id="h" x="-1.08" width="3.16" y="-.85" height="2.71"><feGaussianBlur stdDeviation="6.75"/></filter><filter id="i" x="-1.08" width="3.16" y="-.85" height="2.71"><feGaussianBlur stdDeviation="6.75"/></filter><filter id="j" x="-1.08" width="3.16" y="-.85" height="2.71"><feGaussianBlur stdDeviation="6.75"/></filter><filter id="k" x="-1.08" width="3.16" y="-.85" height="2.71"><feGaussianBlur stdDeviation="6.75"/></filter><filter id="l" x="-1.08" width="3.16" y="-.85" height="2.71"><feGaussianBlur stdDeviation="6.75"/></filter><filter id="m" x="-1.08" width="3.16" y="-.85" height="2.71"><feGaussianBlur stdDeviation="6.75"/></filter></defs><path fill="url(#d)" d="M0 852.36H850V1052.3600000000001H0z" transform="translate(0 -852.362)"/><g color="#000"><path d="m 657.5,147 -7.5,-15 7.5,-15 14.99999,0 7.50001,15 -7.50001,15 z" fill-opacity=".13" overflow="visible"/><path d="M 101.70163,-180.69859 89.403252,-202 l 12.298378,-21.30141 24.59674,0 12.29838,21.30141 -12.29838,21.30141 z" transform="matrix(.61 0 0 .704 595.48 306.244)" fill-opacity=".13" overflow="visible"/><path d="M657.5 115l-7.5-15.000001 7.5-15.000006 15 0L680 99.999999 672.5 115zM657.49999 50.999993l-7.5-15 7.5-15 15 0 7.5 15-7.5 15zM657.5 18.999993L650 3.9999929l7.5-14.9999999 15 0 7.5 14.9999999-7.5 15.0000001zM681.5 163.00002L674 148l7.5-15 14.99999 0 7.50001 15-7.50001 15.00002z" fill-opacity=".13" overflow="visible"/><path d="M 101.70163,-180.69859 89.403252,-202 l 12.298378,-21.30141 24.59674,0 12.29838,21.30141 -12.29838,21.30141 z" transform="matrix(.61 0 0 .704 619.48 322.244)" fill-opacity=".13" overflow="visible"/><path d="M681.5 131l-7.5-15 7.5-15 15 0 7.5 15-7.5 15zM681.49999 66.999993l-7.5-15 7.5-15 15 0 7.5 15-7.5 15zM681.5 34.999993l-7.5-15 7.5-15.0000001 15 0 7.5 15.0000001-7.5 15z" fill-opacity=".13" overflow="visible"/><path d="M 101.70163,-180.69859 89.403252,-202 l 12.298378,-21.30141 24.59674,0 12.29838,21.30141 -12.29838,21.30141 z" transform="matrix(.61 0 0 .704 643.48 306.244)" fill-opacity=".13" overflow="visible"/><path d="m 705.5,115 -7.5,-15.000001 7.5,-15.000006 15,0 L 728,99.999999 720.5,115 z" fill-opacity=".08" overflow="visible"/><path d="m 705.49999,50.999993 -7.5,-15 7.5,-15 15,0 7.5,15 -7.5,15 z" fill-opacity=".13" overflow="visible"/><path d="M 101.70163,-180.69859 89.403252,-202 l 12.298378,-21.30141 24.59674,0 12.29838,21.30141 -12.29838,21.30141 z" transform="matrix(.61 0 0 .704 643.48 210.244)" fill-opacity=".13" overflow="visible"/><path d="M705.5 18.999993L698 3.9999929l7.5-14.9999999 15 0 7.5 14.9999999-7.5 15.0000001zM729.5 163.00002l-7.5-15 7.5-15.00002 14.99999 0 7.50001 15.00002-7.50001 15z" fill-opacity=".13" overflow="visible"/><path d="M 101.70163,-180.69859 89.403252,-202 l 12.298378,-21.30141 24.59674,0 12.29838,21.30141 -12.29838,21.30141 z" transform="matrix(.61 0 0 .704 667.48 322.244)" fill-opacity=".13" overflow="visible"/><path d="M729.5 131l-7.5-15 7.5-15 15 0 7.5 15-7.5 15zM729.49999 66.999993l-7.5-15 7.5-15 15 0 7.5 15-7.5 15z" fill-opacity=".13" overflow="visible"/><path d="M 101.70163,-180.69859 89.403252,-202 l 12.298378,-21.30141 24.59674,0 12.29838,21.30141 -12.29838,21.30141 z" transform="matrix(.61 0 0 .704 667.48 226.244)" fill-opacity=".13" overflow="visible"/><path d="M 101.70163,-180.69859 89.403252,-202 l 12.298378,-21.30141 24.59674,0 12.29838,21.30141 -12.29838,21.30141 z" transform="matrix(.61 0 0 .704 499.48 306.244)" fill-opacity=".13" overflow="visible"/><path d="m 561.49999,50.999993 -7.5,-15 7.5,-15 15,0 7.5,15 -7.5,15 z" fill-opacity=".13" overflow="visible"/><path d="M 101.70163,-180.69859 89.403252,-202 l 12.298378,-21.30141 24.59674,0 12.29838,21.30141 -12.29838,21.30141 z" transform="matrix(.61 0 0 .704 499.48 210.244)" fill-opacity=".13" overflow="visible"/><path d="M 101.70163,-180.69859 89.403252,-202 l 12.298378,-21.30141 24.59674,0 12.29838,21.30141 -12.29838,21.30141 z" transform="matrix(.61 0 0 .704 523.48 322.244)" fill-opacity=".13" overflow="visible"/><path d="m 585.5,131 -7.5,-15 7.5,-15 15,0 7.5,15 -7.5,15 z" fill-opacity=".08" overflow="visible"/><path d="m 585.49999,66.999993 -7.5,-15 7.5,-15 15,0 7.5,15 -7.5,15 z" fill-opacity=".13" overflow="visible"/><path d="M 101.70163,-180.69859 89.403252,-202 l 12.298378,-21.30141 24.59674,0 12.29838,21.30141 -12.29838,21.30141 z" transform="matrix(.61 0 0 .704 523.48 226.244)" fill-opacity=".13" overflow="visible"/><path d="M 609.5,147.00002 602,132 l 7.5,-15 14.99999,0 7.50001,15 -7.50001,15.00002 z" fill-opacity=".13" overflow="visible"/><path d="M 101.70163,-180.69859 89.403252,-202 l 12.298378,-21.30141 24.59674,0 12.29838,21.30141 -12.29838,21.30141 z" transform="matrix(.61 0 0 .704 547.48 306.244)" fill-opacity=".13" overflow="visible"/><path d="M609.5 115l-7.5-15.000001 7.5-15.000006 15 0L632 99.999999 624.5 115zM609.49999 50.999993l-7.5-15 7.5-15 15 0 7.5 15-7.5 15z" fill-opacity=".13" overflow="visible"/><path d="M 101.70163,-180.69859 89.403252,-202 l 12.298378,-21.30141 24.59674,0 12.29838,21.30141 -12.29838,21.30141 z" transform="matrix(.61 0 0 .704 547.48 210.244)" fill-opacity=".13" overflow="visible"/><path d="M 609.5,18.999993 602,3.9999929 l 7.5,-14.9999999 15,0 7.5,14.9999999 -7.5,15.0000001 z" fill-opacity=".13" overflow="visible"/><path d="m 633.5,163.00002 -7.5,-15 7.5,-15.00002 14.99999,0 7.50001,15.00002 -7.50001,15 z" fill-opacity=".06" overflow="visible"/><path d="M633.5 131l-7.5-15 7.5-15 15 0 7.5 15-7.5 15zM633.49999 66.999993l-7.5-15 7.5-15 15 0 7.5 15-7.5 15zM633.5 34.999993l-7.5-15 7.5-15.0000001 15 0 7.5 15.0000001-7.5 15z" fill-opacity=".13" overflow="visible"/><path d="M 101.70163,-180.69859 89.403252,-202 l 12.298378,-21.30141 24.59674,0 12.29838,21.30141 -12.29838,21.30141 z" transform="matrix(.61 0 0 .704 403.48 306.244)" fill-opacity=".06" overflow="visible"/><path d="m 465.49999,50.999993 -7.5,-15 7.5,-15 15,0 7.5,15 -7.5,15 z" fill-opacity=".08" overflow="visible"/><path d="M 465.5,18.999993 458,3.9999929 l 7.5,-14.9999999 15,0 7.5,14.9999999 -7.5,15.0000001 z" fill-opacity=".13" overflow="visible"/><path d="M 101.70163,-180.69859 89.403252,-202 l 12.298378,-21.30141 24.59674,0 12.29838,21.30141 -12.29838,21.30141 z" transform="matrix(.61 0 0 .704 427.48 322.244)" fill-opacity=".13" overflow="visible"/><path d="m 489.5,34.999993 -7.5,-15 7.5,-15.0000001 15,0 7.5,15.0000001 -7.5,15 z" fill-opacity=".13" overflow="visible"/><path d="M 101.70163,-180.69859 89.403252,-202 l 12.298378,-21.30141 24.59674,0 12.29838,21.30141 -12.29838,21.30141 z" transform="matrix(.61 0 0 .704 451.48 306.244)" fill-opacity=".13" overflow="visible"/><path d="M 513.5,18.999993 506,3.9999929 l 7.5,-14.9999999 15,0 7.5,14.9999999 -7.5,15.0000001 z" fill-opacity=".13" overflow="visible"/><path d="M 101.70163,-180.69859 89.403252,-202 l 12.298378,-21.30141 24.59674,0 12.29838,21.30141 -12.29838,21.30141 z" transform="matrix(.61 0 0 .704 475.48 322.244)" fill-opacity=".13" overflow="visible"/><path d="m 537.49999,66.999993 -7.5,-15 7.5,-15 15,0 7.5,15 -7.5,15 z" fill-opacity=".08" overflow="visible"/><path d="M369.5 18.999993L362 3.9999929l7.5-14.9999999 15 0 7.5 14.9999999-7.5 15.0000001zM393.5 163.00002l-7.5-15 7.5-15.00002 14.99999 0 7.50001 15.00002-7.50001 15zM393.49999 66.999993l-7.5-15 7.5-15 15 0 7.5 15-7.5 15zM393.5 34.999993l-7.5-15 7.5-15.0000001 15 0 7.5 15.0000001-7.5 15z" fill-opacity=".13" overflow="visible"/><path d="M 101.70163,-180.69859 89.403252,-202 l 12.298378,-21.30141 24.59674,0 12.29838,21.30141 -12.29838,21.30141 z" transform="matrix(.61 0 0 .704 355.48 306.244)" fill-opacity=".08" overflow="visible"/><path d="m 417.49999,50.999993 -7.5,-15 7.5,-15 15,0 7.5,15 -7.5,15 z" fill-opacity=".13" overflow="visible"/><path d="M 101.70163,-180.69859 89.403252,-202 l 12.298378,-21.30141 24.59674,0 12.29838,21.30141 -12.29838,21.30141 z" transform="matrix(.61 0 0 .704 355.48 210.244)" fill-opacity=".13" overflow="visible"/><path d="M 101.70163,-180.69859 89.403252,-202 l 12.298378,-21.30141 24.59674,0 12.29838,21.30141 -12.29838,21.30141 z" transform="matrix(.61 0 0 .704 379.48 322.244)" fill-opacity=".13" overflow="visible"/><path d="m 441.49999,66.999993 -7.5,-15 7.5,-15 15,0 7.5,15 -7.5,15 z" fill-opacity=".13" overflow="visible"/><path d="M 101.70163,-180.69859 89.403252,-202 l 12.298378,-21.30141 24.59674,0 12.29838,21.30141 -12.29838,21.30141 z" transform="matrix(.61 0 0 .704 211.48 210.244)" fill-opacity=".13" overflow="visible"/><path d="M297.49999 66.999993l-7.5-15 7.5-15 15 0 7.5 15-7.5 15zM321.49999 50.999993l-7.5-15 7.5-15 15 0 7.5 15-7.5 15zM321.5 18.999993L314 3.9999929l7.5-14.9999999 15 0 7.5 14.9999999-7.5 15.0000001z" fill-opacity=".13" overflow="visible"/><path d="M 101.70163,-180.69859 89.403252,-202 l 12.298378,-21.30141 24.59674,0 12.29838,21.30141 -12.29838,21.30141 z" transform="matrix(.61 0 0 .704 283.48 322.244)" fill-opacity=".13" overflow="visible"/><path d="m 345.5,34.999993 -7.5,-15 7.5,-15.0000001 15,0 7.5,15.0000001 -7.5,15 z" fill-opacity=".13" overflow="visible"/><path d="M 101.70163,-180.69859 89.403252,-202 l 12.298378,-21.30141 24.59674,0 12.29838,21.30141 -12.29838,21.30141 z" transform="matrix(.61 0 0 .704 115.48 306.244)" fill-opacity=".13" overflow="visible"/><path d="m 177.49999,50.999993 -7.5,-15 7.5,-15 15,0 7.5,15 -7.5,15 z" fill-opacity=".08" overflow="visible"/><path d="M 177.5,18.999993 170,3.9999929 l 7.5,-14.9999999 15,0 7.5,14.9999999 -7.5,15.0000001 z" fill-opacity=".13" overflow="visible"/><path d="M 101.70163,-180.69859 89.403252,-202 l 12.298378,-21.30141 24.59674,0 12.29838,21.30141 -12.29838,21.30141 z" transform="matrix(.61 0 0 .704 139.48 322.244)" fill-opacity=".13" overflow="visible"/><path d="M201.49999 66.999993l-7.5-15 7.5-15 15 0 7.5 15-7.5 15zM201.5 34.999993l-7.5-15 7.5-15.0000001 15 0 7.5 15.0000001-7.5 15zM225.49999 50.999993l-7.5-15 7.5-15 15 0 7.5 15-7.5 15z" fill-opacity=".13" overflow="visible"/><path d="M 101.70163,-180.69859 89.403252,-202 l 12.298378,-21.30141 24.59674,0 12.29838,21.30141 -12.29838,21.30141 z" transform="matrix(.61 0 0 .704 163.48 210.244)" fill-opacity=".13" overflow="visible"/><path d="M 225.5,18.999993 218,3.9999929 l 7.5,-14.9999999 15,0 7.5,14.9999999 -7.5,15.0000001 z" fill-opacity=".13" overflow="visible"/><path d="m 249.49999,66.999993 -7.5,-15 7.5,-15 15,0 7.5,15 -7.5,15 z" fill-opacity=".06" overflow="visible"/><path d="M 101.70163,-180.69859 89.403252,-202 l 12.298378,-21.30141 24.59674,0 12.29838,21.30141 -12.29838,21.30141 z" transform="matrix(.61 0 0 .704 19.48 306.244)" fill-opacity=".13" overflow="visible"/><path d="M 101.70163,-180.69859 89.403252,-202 l 12.298378,-21.30141 24.59674,0 12.29838,21.30141 -12.29838,21.30141 z" transform="matrix(.61 0 0 .704 43.48 322.244)" fill-opacity=".13" overflow="visible"/><path d="M 101.70163,-180.69859 89.403252,-202 l 12.298378,-21.30141 24.59674,0 12.29838,21.30141 -12.29838,21.30141 z" transform="matrix(.61 0 0 .704 67.48 306.244)" fill-opacity=".08" overflow="visible"/><path d="M153.5 163.00002l-7.5-15 7.5-15.00002 14.99999 0 7.50001 15.00002-7.50001 15zM153.5 34.999993l-7.5-15 7.5-15.0000001 15 0 7.5 15.0000001-7.5 15z" fill-opacity=".13" overflow="visible"/><path d="M 101.70163,-180.69859 89.403252,-202 l 12.298378,-21.30141 24.59674,0 12.29838,21.30141 -12.29838,21.30141 z" transform="matrix(.61 0 0 .704 -76.52 306.244)" fill-opacity=".13" overflow="visible"/><path d="m -14.499991,18.999993 -7.5,-15.0000001 7.5,-14.9999999 15.0000005,0 L 8.00001,3.9999929 0.5000095,18.999993 z" fill-opacity=".13" overflow="visible"/><path d="M 101.70163,-180.69859 89.403252,-202 l 12.298378,-21.30141 24.59674,0 12.29838,21.30141 -12.29838,21.30141 z" transform="matrix(.61 0 0 .704 -52.52 322.244)" fill-opacity=".16" overflow="visible"/><path d="m 9.50001,34.999993 -7.5,-15 7.5,-15.0000001 14.999996,0 7.5,15.0000001 -7.5,15 z" fill-opacity=".13" overflow="visible"/><path d="M 101.70163,-180.69859 89.403252,-202 l 12.298378,-21.30141 24.59674,0 12.29838,21.30141 -12.29838,21.30141 z" transform="matrix(.61 0 0 .704 -28.52 306.244)" fill-opacity=".13" overflow="visible"/><path d="m 33.500006,18.999993 -7.5,-15.0000001 7.5,-14.9999999 15,0 7.5,14.9999999 -7.5,15.0000001 z" fill-opacity=".13" overflow="visible"/><path d="M 101.70163,-180.69859 89.403252,-202 l 12.298378,-21.30141 24.59674,0 12.29838,21.30141 -12.29838,21.30141 z" transform="matrix(.61 0 0 .704 -4.52 322.244)" fill-opacity=".13" overflow="visible"/><path d="M 801.5,147.00002 794,132 l 7.5,-15 14.99999,0 7.50001,15 -7.50001,15.00002 z" fill-opacity=".13" overflow="visible"/><path d="M 101.70163,-180.69859 89.403252,-202 l 12.298378,-21.30141 24.59674,0 12.29838,21.30141 -12.29838,21.30141 z" transform="matrix(.61 0 0 .704 739.48 306.244)" fill-opacity=".13" overflow="visible"/><path d="M801.5 115l-7.5-15.000001 7.5-15.000006 15 0L824 99.999999 816.5 115zM801.49999 50.999993l-7.5-15 7.5-15 15 0 7.5 15-7.5 15z" fill-opacity=".13" overflow="visible"/><path d="M 101.70163,-180.69859 89.403252,-202 l 12.298378,-21.30141 24.59674,0 12.29838,21.30141 -12.29838,21.30141 z" transform="matrix(.61 0 0 .704 739.48 210.244)" fill-opacity=".13" overflow="visible"/><path d="M801.5 18.999993L794 3.9999929l7.5-14.9999999 15 0 7.5 14.9999999-7.5 15.0000001zM825.5 163.00002l-7.5-15 7.5-15.00002 14.99999 0 7.50001 15.00002-7.50001 15z" fill-opacity=".13" overflow="visible"/><path d="M 101.70163,-180.69859 89.403252,-202 l 12.298378,-21.30141 24.59674,0 12.29838,21.30141 -12.29838,21.30141 z" transform="matrix(.61 0 0 .704 763.48 322.244)" fill-opacity=".13" overflow="visible"/><path d="M825.5 131l-7.5-15 7.5-15 15 0 7.5 15-7.5 15zM825.49999 66.999993l-7.5-15 7.5-15 15 0 7.5 15-7.5 15z" fill-opacity=".13" overflow="visible"/><path d="M 101.70163,-180.69859 89.403252,-202 l 12.298378,-21.30141 24.59674,0 12.29838,21.30141 -12.29838,21.30141 z" transform="matrix(.61 0 0 .704 763.48 226.244)" fill-opacity=".13" overflow="visible"/><path d="m 825.5,34.999993 -7.5,-15 7.5,-15.0000001 15,0 7.5,15.0000001 -7.5,15 z" fill-opacity=".08" overflow="visible"/><path d="M 849.5,147.00002 842,132 l 7.5,-15 14.99999,0 7.50001,15 -7.50001,15.00002 z" fill-opacity=".13" overflow="visible"/><path d="M 101.70163,-180.69859 89.403252,-202 l 12.298378,-21.30141 24.59674,0 12.29838,21.30141 -12.29838,21.30141 z" transform="matrix(.61 0 0 .704 787.48 306.244)" fill-opacity=".13" overflow="visible"/><path d="M849.5 115l-7.5-15.000001 7.5-15.000006 15 0L872 99.999999 864.5 115zM849.49999 50.999993l-7.5-15 7.5-15 15 0 7.5 15-7.5 15zM849.5 18.999993L842 3.9999929l7.5-14.9999999 15 0 7.5 14.9999999-7.5 15.0000001zM753.5 147.00002L746 132l7.5-15 14.99999 0 7.50001 15-7.50001 15.00002z" fill-opacity=".13" overflow="visible"/><path d="M 101.70163,-180.69859 89.403252,-202 l 12.298378,-21.30141 24.59674,0 12.29838,21.30141 -12.29838,21.30141 z" transform="matrix(.61 0 0 .704 691.48 306.244)" fill-opacity=".13" overflow="visible"/><path d="m 753.5,115 -7.5,-15.000001 7.5,-15.000006 15,0 L 776,99.999999 768.5,115 z" fill-opacity=".13" overflow="visible"/><path d="m 753.49999,50.999993 -7.5,-15 7.5,-15 15,0 7.5,15 -7.5,15 z" fill-opacity=".08" overflow="visible"/><path d="M 101.70163,-180.69859 89.403252,-202 l 12.298378,-21.30141 24.59674,0 12.29838,21.30141 -12.29838,21.30141 z" transform="matrix(.61 0 0 .704 691.48 210.244)" fill-opacity=".13" overflow="visible"/><path d="M 753.5,18.999993 746,3.9999929 l 7.5,-14.9999999 15,0 7.5,14.9999999 -7.5,15.0000001 z" fill-opacity=".13" overflow="visible"/><path d="M 101.70163,-180.69859 89.403252,-202 l 12.298378,-21.30141 24.59674,0 12.29838,21.30141 -12.29838,21.30141 z" transform="matrix(.61 0 0 .704 715.48 322.244)" fill-opacity=".13" overflow="visible"/><path d="m 777.5,131 -7.5,-15 7.5,-15 15,0 7.5,15 -7.5,15 z" fill-opacity=".08" overflow="visible"/><path d="m 777.5,34.999993 -7.5,-15 7.5,-15.0000001 15,0 7.5,15.0000001 -7.5,15 z" fill-opacity=".13" overflow="visible"/><path d="M 101.70163,-180.69859 89.403252,-202 l 12.298378,-21.30141 24.59674,0 12.29838,21.30141 -12.29838,21.30141 z" transform="matrix(.61 0 0 .704 -76.52 338.244)" fill-opacity=".13" overflow="visible"/><path d="M 101.70163,-180.69859 89.403252,-202 l 12.298378,-21.30141 24.59674,0 12.29838,21.30141 -12.29838,21.30141 z" transform="matrix(.61 0 0 .704 595.48 338.244)" fill-opacity=".13" overflow="visible"/><path d="M 101.70163,-180.69859 89.403252,-202 l 12.298378,-21.30141 24.59674,0 12.29838,21.30141 -12.29838,21.30141 z" transform="matrix(.61 0 0 .704 643.48 338.244)" fill-opacity=".13" overflow="visible"/><path d="M 101.70163,-180.69859 89.403252,-202 l 12.298378,-21.30141 24.59674,0 12.29838,21.30141 -12.29838,21.30141 z" transform="matrix(.61 0 0 .704 499.48 338.244)" fill-opacity=".13" overflow="visible"/><path d="M 101.70163,-180.69859 89.403252,-202 l 12.298378,-21.30141 24.59674,0 12.29838,21.30141 -12.29838,21.30141 z" transform="matrix(.61 0 0 .704 547.48 338.244)" fill-opacity=".13" overflow="visible"/><path d="M 101.70163,-180.69859 89.403252,-202 l 12.298378,-21.30141 24.59674,0 12.29838,21.30141 -12.29838,21.30141 z" transform="matrix(.61 0 0 .704 403.48 338.244)" fill-opacity=".13" overflow="visible"/><path d="M 101.70163,-180.69859 89.403252,-202 l 12.298378,-21.30141 24.59674,0 12.29838,21.30141 -12.29838,21.30141 z" transform="matrix(.61 0 0 .704 451.48 338.244)" fill-opacity=".13" overflow="visible"/><path d="M 101.70163,-180.69859 89.403252,-202 l 12.298378,-21.30141 24.59674,0 12.29838,21.30141 -12.29838,21.30141 z" transform="matrix(.61 0 0 .704 307.48 338.244)" fill-opacity=".13" overflow="visible"/><path d="M 101.70163,-180.69859 89.403252,-202 l 12.298378,-21.30141 24.59674,0 12.29838,21.30141 -12.29838,21.30141 z" transform="matrix(.61 0 0 .704 259.48 338.244)" fill-opacity=".13" overflow="visible"/><path d="M 101.70163,-180.69859 89.403252,-202 l 12.298378,-21.30141 24.59674,0 12.29838,21.30141 -12.29838,21.30141 z" transform="matrix(.61 0 0 .704 115.48 338.244)" fill-opacity=".13" overflow="visible"/><path d="M 101.70163,-180.69859 89.403252,-202 l 12.298378,-21.30141 24.59674,0 12.29838,21.30141 -12.29838,21.30141 z" transform="matrix(.61 0 0 .704 163.48 338.244)" fill-opacity=".16" overflow="visible"/><path d="M 101.70163,-180.69859 89.403252,-202 l 12.298378,-21.30141 24.59674,0 12.29838,21.30141 -12.29838,21.30141 z" transform="matrix(.61 0 0 .704 19.48 338.244)" fill-opacity=".13" overflow="visible"/><path d="M 101.70163,-180.69859 89.403252,-202 l 12.298378,-21.30141 24.59674,0 12.29838,21.30141 -12.29838,21.30141 z" transform="matrix(.61 0 0 .704 67.48 338.244)" fill-opacity=".13" overflow="visible"/><path d="M 101.70163,-180.69859 89.403252,-202 l 12.298378,-21.30141 24.59674,0 12.29838,21.30141 -12.29838,21.30141 z" transform="matrix(.61 0 0 .704 739.48 338.244)" fill-opacity=".13" overflow="visible"/><path d="M 101.70163,-180.69859 89.403252,-202 l 12.298378,-21.30141 24.59674,0 12.29838,21.30141 -12.29838,21.30141 z" transform="matrix(.61 0 0 .704 691.48 338.244)" fill-opacity=".13" overflow="visible"/><path d="M 101.70163,-180.69859 89.403252,-202 l 12.298378,-21.30141 24.59674,0 12.29838,21.30141 -12.29838,21.30141 z" transform="matrix(.61 0 0 .704 -28.52 338.244)" fill-opacity=".13" overflow="visible"/><path d="M 101.70163,-180.69859 89.403252,-202 l 12.298378,-21.30141 24.59674,0 12.29838,21.30141 -12.29838,21.30141 z" transform="matrix(.61 0 0 .704 -4.52 322.244)" fill-opacity=".13" overflow="visible"/><path d="M393.49999 66.99999l-7.5-15 7.5-15 15 0 7.5 15-7.5 15zM585.49999 66.99999l-7.5-15 7.5-15 15 0 7.5 15-7.5 15zM681.5 131l-7.5-15 7.5-15 15 0 7.5 15-7.5 15z" fill-opacity=".13" overflow="visible"/><path d="M 101.70163,-180.69859 89.403252,-202 l 12.298378,-21.30141 24.59674,0 12.29838,21.30141 -12.29838,21.30141 z" transform="matrix(.61 0 0 .704 523.48 322.244)" fill-opacity=".13" overflow="visible"/><path d="M801.49999 50.99999l-7.5-15 7.5-15 15 0 7.5 15-7.5 15zM777.5 34.99999l-7.5-15 7.5-15 15 0 7.5 15-7.5 15zM825.5 131l-7.5-15 7.5-15 15 0 7.5 15-7.5 15z" fill-opacity=".13" overflow="visible"/><path d="m 825.5,131 -7.5,-15 7.5,-15 15,0 7.5,15 -7.5,15 z" fill-opacity=".13" overflow="visible"/><path d="M 101.70163,-180.69859 89.403252,-202 l 12.298378,-21.30141 24.59674,0 12.29838,21.30141 -12.29838,21.30141 z" transform="matrix(.61 0 0 .704 667.48 322.244)" fill-opacity=".13" overflow="visible"/><path d="m 657.5,18.99999 -7.5,-15 7.5,-15 15,0 7.5,15 -7.5,15 z" fill-opacity=".13" overflow="visible"/><path d="m 657.5,18.99999 -7.5,-15 7.5,-15 15,0 7.5,15 -7.5,15 z" fill-opacity=".13" overflow="visible"/><path d="M 101.70163,-180.69859 89.403252,-202 l 12.298378,-21.30141 24.59674,0 12.29838,21.30141 -12.29838,21.30141 z" transform="matrix(.61 0 0 .704 667.48 226.244)" fill-opacity=".13" overflow="visible"/><path d="M 101.70163,-180.69859 89.403252,-202 l 12.298378,-21.30141 24.59674,0 12.29838,21.30141 -12.29838,21.30141 z" transform="matrix(.61 0 0 .704 667.48 226.244)" fill-opacity=".13" overflow="visible"/><path d="m 681.49999,66.99999 -7.5,-15 7.5,-15 15,0 7.5,15 -7.5,15 z" fill-opacity=".13" overflow="visible"/><path d="M 101.70163,-180.69859 89.403252,-202 l 12.298378,-21.30141 24.59674,0 12.29838,21.30141 -12.29838,21.30141 z" transform="matrix(.61 0 0 .704 739.48 306.244)" fill-opacity=".13" overflow="visible"/><path d="M 101.70163,-180.69859 89.403252,-202 l 12.298378,-21.30141 24.59674,0 12.29838,21.30141 -12.29838,21.30141 z" transform="matrix(.61 0 0 .704 739.48 306.244)" fill-opacity=".13" overflow="visible"/><path d="M 101.70163,-180.69859 89.403252,-202 l 12.298378,-21.30141 24.59674,0 12.29838,21.30141 -12.29838,21.30141 z" transform="matrix(.61 0 0 .704 739.48 306.244)" fill-opacity=".13" overflow="visible"/><path d="M 101.70163,-180.69859 89.403252,-202 l 12.298378,-21.30141 24.59674,0 12.29838,21.30141 -12.29838,21.30141 z" transform="matrix(.61 0 0 .704 307.48 338.244)" fill-opacity=".13" overflow="visible"/><path d="M 101.70163,-180.69859 89.403252,-202 l 12.298378,-21.30141 24.59674,0 12.29838,21.30141 -12.29838,21.30141 z" transform="matrix(.61 0 0 .704 307.48 338.244)" fill-opacity=".13" overflow="visible"/><path d="M129.49999 50.99999l-7.5-15 7.5-15 15 0 7.5 15-7.5 15zM103.49999 64.99999l-7.5-15 7.5-15 15 0 7.5 15-7.5 15zM77.49999 50.99999l-7.5-15 7.5-15 15 0 7.5 15-7.5 15z" fill-opacity=".08" overflow="visible"/><path d="m 103.49999,64.99999 -7.5,-15 7.5,-15 15,0 7.5,15 -7.5,15 z" fill-opacity=".08" overflow="visible"/></g><g style="text-align:start;line-height:125%;-inkscape-font-specification:DejaVu Sans Ultra-Light" font-size="40" font-weight="200" letter-spacing="0" word-spacing="0" fill="#fff" font-family="DejaVu Sans"><path d="M27 86.273437l1.953125 0 0 27.558593 14.199219 0 0 1.60156-16.152344 0 0-29.160153M49.246094 86.273437l16.484375 0 0 1.621094-14.492188 0 0 11.191406 13.886719 0 0 1.582033-13.886719 0 0 13.18359 14.84375 0 0 1.58203-16.835937 0 0-29.160153M90.867187 87.738281l0 1.835938c-1.276061-.637995-2.68882-1.2044-4.238281-1.699219-1.015641-.325493-2.298191-.501274-3.847656-.527344-2.291677-.03903-4.153655.468778-5.585938 1.523438-1.302089.963567-1.95313 2.617211-1.953125 4.960937-.000005 1.445333.494786 2.591165 1.484375 3.4375 1.05468.898455 2.64322 1.621111 4.765625 2.167969l2.324219.60547c2.083317.54689 3.691389 1.19793 4.824219 1.95312 2.122375 1.44533 3.183572 3.26173 3.183594 5.44922-.000022 3.16407-.931011 5.35808-2.792969 6.58203-2.031267 1.31511-4.114599 1.97266-6.25 1.97266-2.226573 0-4.218759-.30599-5.976563-.91797-1.106776-.44271-2.265629-1.05468-3.476562-1.83594l0-1.91406c1.822911 1.08073 3.098952 1.77084 3.828125 2.07031 1.627595.66407 3.13801.9961 4.53125.9961 2.382798 0 4.361963-.52734 5.9375-1.58203 1.484356-.98958 2.226542-2.72786 2.226562-5.21485-.00002-1.45832-.455748-2.60415-1.367187-3.4375-1.315122-1.21092-3.020849-2.0703-5.117188-2.57812l-2.34375-.56641c-1.875009-.45571-3.470059-1.093733-4.785156-1.914061-1.992192-1.249983-2.988285-2.95571-2.988281-5.117188-.000004-2.695288.813798-4.765599 2.441406-6.210937 1.510409-1.341117 3.802074-2.0182 6.875-2.03125 1.809881.000029 3.196599.156279 4.160156.46875 2.473939.80732 3.854146 1.315132 4.140625 1.523437" style="-inkscape-font-specification:DejaVu Sans Ultra-Light"/><path d="M129.67578 88.519531l0 4.160156c-1.19794-1.236955-2.47398-2.161433-3.82812-2.773437-1.35419-.611953-2.79299-.917942-4.31641-.917969-2.9948.000027-5.29298 1.022161-6.89453 3.066406-1.58855 2.031272-2.38282 4.973977-2.38281 8.828123-.00001 3.84116.79426 6.78386 2.38281 8.82813 1.60155 2.03125 3.89973 3.04688 6.89453 3.04687 1.52342.00001 2.96222-.30598 4.31641-.91797 1.35414-.61197 2.63018-1.53645 3.82812-2.77343l0 4.12109c-1.237.9375-2.5521 1.64063-3.94531 2.10938-1.39325.46874-2.85809.70312-4.39453.70312-3.98439 0-7.1159-1.34766-9.39453-4.04297-2.27865-2.70833-3.41797-6.39973-3.41797-11.07422 0-4.687478 1.13932-8.378881 3.41797-11.074216 2.27863-2.708305 5.41014-4.062471 9.39453-4.0625 1.56248.000029 3.04034.234404 4.43359.703125 1.39321.455757 2.69529 1.145861 3.90625 2.070312M145.82812 88.949219c-2.57813.000026-4.62891 1.067734-6.15234 3.203125-1.51042 2.135438-2.26563 5.045591-2.26562 8.730466-.00001 3.67189.7552 6.57553 2.26562 8.71094 1.52343 2.13542 3.57421 3.20313 6.15234 3.20313 2.57811 0 4.62238-1.06771 6.13282-3.20313 1.51039-2.13541 2.2656-5.03905 2.26562-8.71094-.00002-3.684875-.75523-6.595028-2.26562-8.730466-1.51044-2.135391-3.55471-3.203099-6.13282-3.203125m0-3.203125c3.68488.000029 6.62759 1.373726 8.82813 4.121093 2.2005 2.734398 3.30075 6.40627 3.30078 11.015623-.00003 4.59637-1.10028 8.26824-3.30078 11.01563C152.45571 114.63281 149.513 116 145.82812 116c-3.6849 0-6.63412-1.36719-8.84765-4.10156-2.20053-2.73437-3.30078-6.40624-3.30078-11.01563 0-4.609353 1.10025-8.281225 3.30078-11.015623 2.21353-2.747367 5.16275-4.121064 8.84765-4.121093M174.1875 88.949219c-2.57814.000026-4.62892 1.067734-6.15234 3.203125-1.51043 2.135438-2.26563 5.045591-2.26563 8.730466 0 3.67189.7552 6.57553 2.26563 8.71094 1.52342 2.13542 3.5742 3.20313 6.15234 3.20313 2.57811 0 4.62238-1.06771 6.13281-3.20313 1.5104-2.13541 2.2656-5.03905 2.26563-8.71094-.00003-3.684875-.75523-6.595028-2.26563-8.730466-1.51043-2.135391-3.5547-3.203099-6.13281-3.203125m0-3.203125c3.68488.000029 6.62758 1.373726 8.82812 4.121093 2.2005 2.734398 3.30076 6.40627 3.30079 11.015623-.00003 4.59637-1.10029 8.26824-3.30079 11.01563-2.20054 2.73437-5.14324 4.10156-8.82812 4.10156-3.68491 0-6.63412-1.36719-8.84766-4.10156-2.20052-2.73437-3.30078-6.40624-3.30078-11.01563 0-4.609353 1.10026-8.281225 3.30078-11.015623 2.21354-2.747367 5.16275-4.121064 8.84766-4.121093M204.34375 101.76172c.76821.28647 1.5104.89845 2.22656 1.83594.71613.93751 1.43878 2.22657 2.16797 3.86718l3.61328 7.96875-3.82812 0-3.35938-7.48046c-.85939-1.95312-1.69923-3.24869-2.51953-3.88672-.8073-.63801-1.91407-.95702-3.32031-.95703l-3.86719 0 0 12.32421-3.55469 0 0-29.160153 8.00782 0c3.00779.00003 5.24738.696644 6.71875 2.089844 1.47133 1.393255 2.20701 3.496118 2.20703 6.308594-.00002 1.835956-.38414 3.359392-1.15235 4.570312-.75522 1.210953-1.8685 2.050793-3.33984 2.519533m-8.88672-12.246095l0 10.351562 4.45313 0c1.71873.000016 3.0143-.436181 3.88671-1.308593.87238-.885399 1.30858-2.180971 1.3086-3.886719-.00002-1.705707-.43622-2.988258-1.3086-3.847656-.87241-.872371-2.16798-1.308568-3.88671-1.308594l-4.45313 0M220.45703 89.515625l0 22.675785 4.27734 0c3.61978 0 6.26952-.91146 7.94922-2.73438 1.69269-1.82291 2.53904-4.70051 2.53907-8.63281-.00003-3.906233-.84638-6.764303-2.53907-8.57422-1.6797-1.822892-4.32944-2.734349-7.94922-2.734375l-4.27734 0m-3.55469-3.242188l7.28516 0c5.09113.00003 8.82159 1.178414 11.19141 3.535157 2.38278 2.343773 3.57419 6.015644 3.57421 11.015626-.00002 5.02605-1.19794 8.71745-3.59375 11.07422-2.38283 2.35677-6.10678 3.53515-11.17187 3.53515l-7.28516 0 0-29.160153M255.28125 88.949219c-2.57814.000026-4.62892 1.067734-6.15234 3.203125-1.51043 2.135438-2.26563 5.045591-2.26563 8.730466 0 3.67189.7552 6.57553 2.26563 8.71094 1.52342 2.13542 3.5742 3.20313 6.15234 3.20313 2.57811 0 4.62238-1.06771 6.13281-3.20313 1.5104-2.13541 2.2656-5.03905 2.26563-8.71094-.00003-3.684875-.75523-6.595028-2.26563-8.730466-1.51043-2.135391-3.5547-3.203099-6.13281-3.203125m0-3.203125c3.68488.000029 6.62758 1.373726 8.82812 4.121093 2.2005 2.734398 3.30076 6.40627 3.30079 11.015623-.00003 4.59637-1.10029 8.26824-3.30079 11.01563-2.20054 2.73437-5.14324 4.10156-8.82812 4.10156-3.68491 0-6.63412-1.36719-8.84766-4.10156-2.20052-2.73437-3.30078-6.40624-3.30078-11.01563 0-4.609353 1.10026-8.281225 3.30078-11.015623 2.21354-2.747367 5.16275-4.121064 8.84766-4.121093M272.99609 86.273437l4.78516 0 11.64062 24.394533 0-24.394533 3.4375 0 0 29.160153-4.78515 0-11.64063-24.394528 0 24.394528-3.4375 0 0-29.160153M299.94922 86.273437l4.78515 0 11.64063 24.394533 0-24.394533 3.4375 0 0 29.160153-4.78516 0-11.64062-24.394528 0 24.394528-3.4375 0 0-29.160153M326.90234 86.273437l16.58203 0 0 3.320313-13.02734 0 0 8.632812 12.5 0 0 3.320318-12.5 0 0 10.5664 13.35938 0 0 3.32031-16.91407 0 0-29.160153m9.21875-7.929687l3.24219 0-4.00391 5.15625-2.69531 0 3.45703-5.15625M349.63672 86.273437l16.58203 0 0 3.320313-13.02734 0 0 8.632812 12.5 0 0 3.320318-12.5 0 0 10.5664 13.35937 0 0 3.32031-16.91406 0 0-29.160153M388.09375 87.230469l0 3.847656c-1.34116-.716121-2.61069-1.249974-3.80859-1.601563-1.19793-.351536-2.35028-.527317-3.45704-.527343-1.94011.000026-3.4375.416692-4.49218 1.25-1.04168.833357-1.56251 2.018252-1.5625 3.554687-.00001 1.289083.34504 2.265645 1.03515 2.929688.70312.65106 2.03124 1.178403 3.98438 1.582031l2.1289.488281c2.65624.559912 4.60936 1.549494 5.85938 2.968754 1.263 1.40626 1.89451 3.29428 1.89453 5.66406-.00002 2.82552-.85288 4.96745-2.55859 6.42578-1.69273 1.45833-4.18621 2.1875-7.48047 2.1875-1.25001 0-2.57813-.15625-3.98438-.46875-1.39323-.3125-2.83854-.77474-4.33593-1.38672l0-4.0625c1.4453.89844 2.85806 1.57553 4.23828 2.03125 1.3802.45573 2.74087.6836 4.08203.6836 2.01822 0 3.58071-.44271 4.6875-1.32813 1.10675-.88541 1.66014-2.14843 1.66015-3.78906-.00001-1.43228-.39715-2.55208-1.1914-3.35938-.79429-.80728-2.09637-1.41275-3.90625-1.8164l-2.14844-.46875c-2.65626-.58593-4.57683-1.5039-5.76172-2.75391-1.17188-1.249983-1.75781-2.988262-1.75781-5.214844 0-2.578101.8138-4.609349 2.44141-6.09375 1.64061-1.484346 3.89322-2.226533 6.75781-2.226562 1.23697.000029 2.49347.123727 3.76953.371093 1.27603.247425 2.57811.618519 3.90625 1.113282" style="line-height:125%;-inkscape-font-specification:DejaVu Sans Semi-Condensed" font-weight="normal" font-stretch="semi-condensed"/><path d="M407.99609 86.273437l16.48438 0 0 1.621094-14.49219 0 0 11.191406 13.88672 0 0 1.582033-13.88672 0 0 13.18359 14.84375 0 0 1.58203-16.83594 0 0-29.160153M433.28906 86.273437l2.89063 0 14.14062 26.660153 0-26.660153 1.95313 0 0 29.160153-2.77344 0-14.21875-26.835934 0 26.835934-1.99219 0 0-29.160153" style="-inkscape-font-specification:DejaVu Sans Ultra-Light"/><path d="M489.03125 87.230469l0 3.847656c-1.34116-.716121-2.61069-1.249974-3.80859-1.601563-1.19793-.351536-2.35028-.527317-3.45704-.527343-1.94011.000026-3.4375.416692-4.49218 1.25-1.04168.833357-1.56251 2.018252-1.5625 3.554687-.00001 1.289083.34504 2.265645 1.03515 2.929688.70312.65106 2.03124 1.178403 3.98438 1.582031l2.1289.488281c2.65624.559912 4.60936 1.549494 5.85938 2.968754 1.263 1.40626 1.89451 3.29428 1.89453 5.66406-.00002 2.82552-.85288 4.96745-2.55859 6.42578-1.69273 1.45833-4.18621 2.1875-7.48047 2.1875-1.25001 0-2.57813-.15625-3.98438-.46875-1.39323-.3125-2.83854-.77474-4.33593-1.38672l0-4.0625c1.4453.89844 2.85806 1.57553 4.23828 2.03125 1.3802.45573 2.74087.6836 4.08203.6836 2.01822 0 3.58071-.44271 4.6875-1.32813 1.10675-.88541 1.66014-2.14843 1.66015-3.78906-.00001-1.43228-.39715-2.55208-1.1914-3.35938-.79429-.80728-2.09637-1.41275-3.90625-1.8164l-2.14844-.46875c-2.65626-.58593-4.57683-1.5039-5.76172-2.75391-1.17188-1.249983-1.75781-2.988262-1.75781-5.214844 0-2.578101.8138-4.609349 2.44141-6.09375 1.64061-1.484346 3.89322-2.226533 6.75781-2.226562 1.23697.000029 2.49347.123727 3.76953.371093 1.27603.247425 2.57811.618519 3.90625 1.113282M502.95703 115.43359l-10.01953-29.160153 3.71094 0 8.32031 24.550783 8.33984-24.550783 3.69141 0-10 29.160153-4.04297 0M538.69922 111.27344l0-7.83203-5.80078 0 0-3.24219 9.3164 0 0 12.51953c-1.36721 1.08073-2.87762 1.90104-4.53125 2.46094-1.65366.54687-3.41798.82031-5.29297.82031-4.10157 0-7.3112-1.32812-9.6289-3.98437-2.30469-2.66927-3.45703-6.3802-3.45703-11.13282 0-4.765603 1.15234-8.476537 3.45703-11.13281 2.3177-2.669242 5.52733-4.003877 9.6289-4.003906 1.70572.000029 3.32681.234404 4.86329.703125 1.54945.468778 2.97523 1.158882 4.27734 2.070312l0 4.199219c-1.31513-1.236955-2.71487-2.167944-4.19922-2.792969-1.47137-.624974-3.02085-.937473-4.64844-.9375-3.20313.000027-5.61199.996119-7.22656 2.988281-1.61459 1.992209-2.42188 4.960956-2.42187 8.906248-.00001 3.9323.80728 6.89454 2.42187 8.88672 1.61457 1.99219 4.02343 2.98829 7.22656 2.98828 1.26301.00001 2.3828-.11718 3.35938-.35156.98956-.24739 1.87498-.625 2.65625-1.13281" style="line-height:125%;-inkscape-font-specification:DejaVu Sans Semi-Condensed" font-weight="normal" font-stretch="semi-condensed"/></g><path d="m 555,125 c -2.76371,0 -5,2.23629 -5,5 0,2.76371 2.23629,5 5,5 2.76371,0 5,-2.23629 5,-5 0,-2.76371 -2.23629,-5 -5,-5 z" fill="#fff"/><path d="m 597.00016,148.98729 a 13.637059,12.626906 0 1 1 -27.27412,0 13.637059,12.626906 0 1 1 27.27412,0 z" transform="matrix(.353 0 0 .38 -191.038 73.17)" fill="#fff" stroke="#fff"/><path d="m 555,118 c -6.6329,0 -12,5.3671 -12,12 0,6.6329 5.3671,12 12,12 6.6329,0 12,-5.3671 12,-12 0,-6.6329 -5.3671,-12 -12,-12 z" fill="url(#e)"/><path d="m 15,118 c -6.6329,0 -12,5.3671 -12,12 0,6.6329 5.3671,12 12,12 6.6329,0 12,-5.3671 12,-12 0,-6.6329 -5.3671,-12 -12,-12 z" fill="url(#f)"/><path d="m 12.500006,129.49999 538.999974,0" fill="#fff" stroke="#fff"/><path d="M 629,169 702,50 826,77 655,24 814,152 604,100 737,175 z" fill="none" stroke="#fff" stroke-width=".6" stroke-linecap="round" stroke-linejoin="round" stroke-opacity=".94"/><path d="m 633,177.5 a 7.5,9.5 0 1 1 -15,0 7.5,9.5 0 1 1 15,0 z" transform="matrix(.467 0 0 .368 337.6 103.105)" color="#000" fill="#fff" overflow="visible"/><path d="m 633,177.5 a 7.5,9.5 0 1 1 -15,0 7.5,9.5 0 1 1 15,0 z" transform="matrix(.4 0 0 .316 355.17 44.402)" color="#000" fill="#fff" overflow="visible"/><path d="m 633,177.5 a 7.5,9.5 0 1 1 -15,0 7.5,9.5 0 1 1 15,0 z" transform="matrix(.2 0 0 .158 529.47 -4.046)" color="#000" fill="#fff" overflow="visible"/><path d="m 633,177.5 a 7.5,9.5 0 1 1 -15,0 7.5,9.5 0 1 1 15,0 z" transform="matrix(.267 0 0 .21 535.95 12.382)" color="#000" fill="#fff" overflow="visible"/><path d="m 633,177.5 a 7.5,9.5 0 1 1 -15,0 7.5,9.5 0 1 1 15,0 z" transform="matrix(.267 0 0 .21 658.825 39.507)" color="#000" fill="#fff" overflow="visible"/><path d="m 633,177.5 a 7.5,9.5 0 1 1 -15,0 7.5,9.5 0 1 1 15,0 z" transform="matrix(.4 0 0 .316 563.8 95.947)" color="#000" fill="#fff" overflow="visible"/><path d="m 633,177.5 a 7.5,9.5 0 1 1 -15,0 7.5,9.5 0 1 1 15,0 z" transform="matrix(.467 0 0 .368 444.6 109.105)" color="#000" fill="#fff" overflow="visible"/><path d="m 629,168.5 196.5,-92" fill="none" stroke="#fff" stroke-width=".5"/><path d="M630 168.5L605 100M702 49.5L814 152M654 24.5l81.5 149M606 100L654.5 23.5" fill="none" stroke="#fff" stroke-width=".3"/><path d="m 702.5,49.5 -97,51.5" fill="none" stroke="#fff" stroke-width=".8"/><path d="M 736,174.5 825,77" fill="none" stroke="#fff" stroke-width=".3"/><path d="M 814.5,152 825,76.5" fill="none" stroke="#fff" stroke-width=".6"/><path d="m 735,174 79,-22" fill="none" stroke="#fff" stroke-width=".3"/><path d="m 633,177.5 a 7.5,9.5 0 1 1 -15,0 7.5,9.5 0 1 1 15,0 z" transform="matrix(.467 0 0 .368 337.6 103.105)" color="#000" fill="#fff" overflow="visible" filter="url(#g)"/><path d="m 633,177.5 a 7.5,9.5 0 1 1 -15,0 7.5,9.5 0 1 1 15,0 z" transform="matrix(.4 0 0 .316 355.17 44.402)" color="#000" fill="#fff" overflow="visible" filter="url(#h)"/><path d="m 633,177.5 a 7.5,9.5 0 1 1 -15,0 7.5,9.5 0 1 1 15,0 z" transform="matrix(.467 0 0 .368 444.6 109.105)" color="#000" fill="#fff" overflow="visible" filter="url(#i)"/><path d="m 633,177.5 a 7.5,9.5 0 1 1 -15,0 7.5,9.5 0 1 1 15,0 z" transform="matrix(.4 0 0 .316 563.8 95.947)" color="#000" fill="#fff" overflow="visible" filter="url(#j)"/><path d="m 633,177.5 a 7.5,9.5 0 1 1 -15,0 7.5,9.5 0 1 1 15,0 z" transform="matrix(.267 0 0 .21 658.825 39.507)" color="#000" fill="#fff" overflow="visible" filter="url(#k)"/><path d="m 633,177.5 a 7.5,9.5 0 1 1 -15,0 7.5,9.5 0 1 1 15,0 z" transform="matrix(.267 0 0 .21 535.95 12.382)" color="#000" fill="#fff" overflow="visible" filter="url(#l)"/><path d="m 633,177.5 a 7.5,9.5 0 1 1 -15,0 7.5,9.5 0 1 1 15,0 z" transform="matrix(.2 0 0 .158 529.47 -4.046)" color="#000" fill="#fff" overflow="visible" filter="url(#m)"/></svg>